<?xml version="1.0" encoding="UTF-8"?>
<svg version="1.1" xmlns="http://www.w3.org/2000/svg" width="1184" height="864">
<path d="M0 0 C390.72 0 781.44 0 1184 0 C1184 285.12 1184 570.24 1184 864 C793.28 864 402.56 864 0 864 C0 578.88 0 293.76 0 0 Z " fill="#FDFEFE" transform="translate(0,0)"/>
<path d="M0 0 C24.88603451 -0.02332603 49.77206739 -0.04097771 74.65811062 -0.05181217 C86.212263 -0.05697576 97.76640861 -0.06401965 109.32055664 -0.07543945 C119.38724349 -0.08538437 129.45392544 -0.09185297 139.52061707 -0.09408849 C144.85436711 -0.09539593 150.18810312 -0.09848384 155.52184868 -0.10573006 C160.53597659 -0.11248725 165.55008459 -0.11461758 170.56421661 -0.11310768 C172.41017579 -0.11338415 174.25613558 -0.11539104 176.10209084 -0.11920547 C178.6109678 -0.12413803 181.11976833 -0.12299992 183.62864685 -0.12025452 C184.36890513 -0.12316736 185.10916342 -0.1260802 185.87185377 -0.12908131 C190.88587879 -0.11412121 190.88587879 -0.11412121 192 1 C192.10853649 2.37641112 192.14901755 3.75828538 192.16113281 5.13891602 C192.1706044 6.02314743 192.18007599 6.90737885 192.18983459 7.81840515 C192.19641335 9.2714782 192.19641335 9.2714782 192.203125 10.75390625 C192.21004868 11.75400223 192.21697235 12.75409821 192.22410583 13.78450012 C192.24151676 17.04387243 192.24770678 20.30308322 192.25 23.5625 C192.25133942 24.66112366 192.25267883 25.75974731 192.25405884 26.8916626 C192.24919908 45.14256854 192.20118516 63.13744524 186.69799805 80.70117188 C185.81081232 83.62308191 185.17728324 86.57259147 184.5625 89.5625 C183.30765755 95.12151708 181.50261968 99.90408601 179 105 C178.28842756 106.58188028 177.58039114 108.1653537 176.875 109.75 C172.71598751 118.89457951 168.33483725 127.93785553 164 137 C163.34 137 162.68 137 162 137 C161.67 138.65 161.34 140.3 161 142 C160.34 142 159.68 142 159 142 C158.93039062 142.67675781 158.86078125 143.35351562 158.7890625 144.05078125 C157.74426254 147.95585041 155.65338465 150.91151637 153.375 154.1875 C152.92133057 154.85313965 152.46766113 155.5187793 152.00024414 156.20458984 C150.67572525 158.14271574 149.34020922 160.07270107 148 162 C147.37222656 162.90621094 146.74445313 163.81242188 146.09765625 164.74609375 C145.0042548 166.31287372 143.90669544 167.87676149 142.8046875 169.4375 C140.53923043 172.6542529 138.30025604 175.88894129 136.0625 179.125 C135.4590979 179.99729248 135.4590979 179.99729248 134.84350586 180.88720703 C133.89544499 182.25798203 132.94768856 183.62896758 132 185 C133.11568359 184.38125 133.11568359 184.38125 134.25390625 183.75 C144.76207489 178.19196039 155.71894807 174.43947409 166.99731445 170.73681641 C168.96972014 170.170101 168.96972014 170.170101 170 169 C172.31040573 168.56777066 174.61649861 168.17987382 176.9375 167.8125 C182.28270713 166.94830085 187.52674725 165.90659807 192.76571655 164.53109741 C208.33217214 160.47871083 222.69004214 159.1819448 238.7265625 159.4140625 C241.06593722 159.42529868 243.40532638 159.43381782 245.74472046 159.43978882 C251.80451736 159.46233962 257.86340566 159.52095848 263.92285156 159.5880127 C270.14505736 159.65017731 276.36741475 159.67695979 282.58984375 159.70703125 C294.72695455 159.77074528 306.86340079 159.87269806 319 160 C317.34541659 164.22521012 315.42473213 168.26719532 313.375 172.3125 C312.88773438 173.28026367 312.88773438 173.28026367 312.390625 174.26757812 C311.59558044 175.84597541 310.79804366 177.42311694 310 179 C309.34 179 308.68 179 308 179 C307.731875 180.134375 307.46375 181.26875 307.1875 182.4375 C306.795625 183.613125 306.40375 184.78875 306 186 C305.01 186.33 304.02 186.66 303 187 C302.31875294 188.99508067 301.65572791 190.99638693 301 193 C299.89200172 196.33788762 298.68336024 198.67360772 296 201 C291.08547456 202.20077267 286.17496319 202.02223148 281.1484375 201.9296875 C279.65083758 201.93213527 278.15323957 201.93840366 276.65567017 201.94827271 C272.69684972 201.96539874 268.73973071 201.93657688 264.78112793 201.89630127 C258.54505711 201.8410938 252.30843324 201.85636938 246.07217598 201.86452484 C244.53922171 201.86630048 243.00626567 201.86691522 241.47331047 201.86637115 C231.26108705 201.86701774 221.12392071 202.11488758 210.93359375 202.8515625 C209.35431595 202.96236649 209.35431595 202.96236649 207.74313354 203.07540894 C196.73268479 203.97989884 186.15471604 206.59248892 175.703125 210.109375 C173.45716096 210.84937471 171.38265501 211.35144576 169.0625 211.75 C163.39994135 212.95864697 158.16710136 215.2223961 152.83984375 217.4296875 C149.36587131 218.86869336 145.84774653 220.15581398 142.3125 221.4375 C135.75609183 223.95612021 129.93586186 227.2697327 124 231 C123.39381836 231.37769531 122.78763672 231.75539063 122.16308594 232.14453125 C120.24980137 233.33899665 118.34231577 234.54208007 116.4375 235.75 C115.84138916 236.12672852 115.24527832 236.50345703 114.63110352 236.89160156 C111.78356504 238.72470702 109.37506369 240.60217213 107 243 C106.34 243 105.68 243 105 243 C105 243.66 105 244.32 105 245 C103.50390625 246.4375 103.50390625 246.4375 101.5625 248 C98.84811762 250.14525044 98.84811762 250.14525044 97 253 C95.68 252.67 94.36 252.34 93 252 C93 251.34 93 250.68 93 250 C92.34 250 91.68 250 91 250 C86.23255814 245.69767442 86.23255814 245.69767442 85 242 C83.34544373 241.30382059 81.67552476 240.64407997 80 240 C77.72746255 238.51672705 75.51510222 237.01648891 73.3125 235.4375 C69.29029545 232.5019847 69.29029545 232.5019847 65 230 C65 229.34 65 228.68 65 228 C63.68 228 62.36 228 61 228 C61 227.34 61 226.68 61 226 C60.18402344 225.73832031 59.36804688 225.47664062 58.52734375 225.20703125 C54.48500606 223.82377284 50.53256001 222.26348317 46.5625 220.6875 C39.45824367 217.88865411 32.31242163 215.36442215 25.0390625 213.04296875 C22 212 22 212 19.96875 210.95703125 C17.34124222 209.67977052 14.72490684 209.13178658 11.875 208.5 C10.72128906 208.24347656 9.56757813 207.98695313 8.37890625 207.72265625 C4.71911442 206.9399262 1.05761195 206.17771452 -2.6171875 205.46875 C-4.20980114 205.15544896 -5.79857137 204.82195786 -7.3828125 204.46875 C-19.30086145 201.86287435 -31.37346749 201.87059633 -43.51231575 201.89246559 C-47.78105759 201.89604955 -52.04967779 201.87015879 -56.31835938 201.84960938 C-61.71715631 201.82522198 -67.11555949 201.80971796 -72.5144043 201.82495117 C-76.91286215 201.83659035 -81.31036839 201.81930448 -85.70867729 201.78250694 C-87.37721142 201.77389494 -89.04583676 201.77596679 -90.71434212 201.789011 C-93.03858028 201.8058569 -95.35977888 201.78577889 -97.68383789 201.75708008 C-99.00364151 201.75565506 -100.32344513 201.75423004 -101.6832428 201.75276184 C-105 201 -105 201 -107.45726013 198.0776825 C-109 195 -109 195 -109 193 C-109.66 193 -110.32 193 -111 193 C-111.36351562 192.24976563 -111.72703125 191.49953125 -112.1015625 190.7265625 C-115.10435375 184.61318748 -118.26274774 178.72210743 -121.8984375 172.9609375 C-123 171 -123 171 -123 169 C-123.66 169 -124.32 169 -125 169 C-127.43160605 165.63316085 -128 164.26649636 -128 160 C-114.8735625 159.97678609 -101.74712992 159.95903885 -88.62067604 159.94818783 C-82.52494199 159.94297877 -76.42922203 159.93591714 -70.33349609 159.92456055 C-64.44610837 159.91366127 -58.55873417 159.90770827 -52.67133713 159.90512276 C-50.42998416 159.90328118 -48.18863189 159.89968509 -45.9472847 159.89426994 C-42.7976855 159.88696602 -39.64814152 159.88601299 -36.49853516 159.88647461 C-35.1218013 159.8810817 -35.1218013 159.8810817 -33.71725464 159.87557983 C-26.104868 159.88758051 -18.5027065 160.32591595 -11.0390625 161.91015625 C-10.21438477 162.08434082 -9.38970703 162.25852539 -8.54003906 162.43798828 C-4.14481175 163.41048091 0.24389267 164.40307188 4.625 165.4375 C5.51445312 165.64181641 6.40390625 165.84613281 7.3203125 166.05664062 C12.74796189 167.33772552 17.79994133 168.99315433 23 171 C24.6556152 171.43977279 26.32125518 171.84650496 28 172.1875 C28.763125 172.34605469 29.52625 172.50460937 30.3125 172.66796875 C30.869375 172.77753906 31.42625 172.88710938 32 173 C32 173.66 32 174.32 32 175 C33.7634375 175.1546875 33.7634375 175.1546875 35.5625 175.3125 C39.78238211 175.84553774 43.13985313 177.17150938 47 179 C48.56124456 179.69034623 50.12379679 180.37774108 51.6875 181.0625 C54.49809208 182.30555049 57.25483137 183.61898392 60 185 C59.60321045 184.4831665 59.2064209 183.96633301 58.79760742 183.43383789 C49.99571822 171.93207617 41.62999788 160.31219783 34 148 C33.43023438 147.0925 32.86046875 146.185 32.2734375 145.25 C27.83184805 138.02944816 23.91802697 130.51304102 20 123 C19.13955078 121.3603125 19.13955078 121.3603125 18.26171875 119.6875 C17.74222656 118.676875 17.22273437 117.66625 16.6875 116.625 C16.23761719 115.75101562 15.78773438 114.87703125 15.32421875 113.9765625 C13.93074812 110.84433648 12.84667406 107.70350176 11.79223633 104.44482422 C10.98307079 101.94775683 10.13642555 99.4660328 9.28125 96.984375 C1.19808683 73.34117865 -1.17975841 51.5678322 -1.1875 26.6875 C-1.18899551 25.39359344 -1.18899551 25.39359344 -1.19052124 24.07354736 C-1.19019435 21.57368628 -1.18109127 19.07404279 -1.16796875 16.57421875 C-1.16615601 15.45642784 -1.16615601 15.45642784 -1.16430664 14.3160553 C-1.15802246 13.60291672 -1.15173828 12.88977814 -1.14526367 12.1550293 C-1.14145187 11.54330368 -1.13764008 10.93157806 -1.13371277 10.30131531 C-0.93289246 6.84501965 -0.43783762 3.43414939 0 0 Z " fill="#030302" transform="translate(486,326)"/>
<path d="M0 0 C-2.24399825 4.08675179 -4.92589163 7.24360625 -8.125 10.625 C-11.75035415 14.49975837 -15.2329732 18.42581518 -18.5625 22.5625 C-21.74493699 26.50184093 -24.99769417 30.35275981 -28.375 34.125 C-29.18710937 35.03507813 -29.99921875 35.94515625 -30.8359375 36.8828125 C-33.81714424 39.79944437 -35.52902818 39.99201743 -39.6875 40.0625 C-40.780625 40.041875 -41.87375 40.02125 -43 40 C-43 40.66 -43 41.32 -43 42 C-44.21171875 42.06316406 -45.4234375 42.12632812 -46.671875 42.19140625 C-59.74147618 43.06877288 -70.9034599 46.07742581 -83 51 C-83.87237305 51.35497559 -84.74474609 51.70995117 -85.64355469 52.07568359 C-90.49631051 54.06753951 -95.32768034 56.10411776 -100.13232422 58.20947266 C-101.72117731 58.88198328 -103.34463381 59.47177034 -104.97265625 60.04296875 C-105.64167969 60.35878906 -106.31070313 60.67460938 -107 61 C-107.33 61.99 -107.66 62.98 -108 64 C-109.671875 65.02734375 -109.671875 65.02734375 -111.75 65.9375 C-115.26374392 67.56843132 -118.00196056 69.53102635 -121 72 C-121.66 72 -122.32 72 -123 72 C-123 72.66 -123 73.32 -123 74 C-124.36328125 75.3046875 -124.36328125 75.3046875 -126.3125 76.875 C-130.12383236 80.1125834 -133.55424715 83.57783144 -136.9375 87.25 C-137.4219458 87.76933105 -137.9063916 88.28866211 -138.40551758 88.82373047 C-140.58346722 91.21214936 -141.96542064 92.89626192 -143 96 C-123.86 96 -104.72 96 -85 96 C-86.79105033 99.58210066 -87.4905282 100.68311503 -90.375 103.0625 C-92.98934928 105.26506533 -95.55613546 107.495729 -98.0546875 109.828125 C-98.58271973 110.32046631 -99.11075195 110.81280762 -99.65478516 111.32006836 C-100.70168018 112.29950963 -101.7457303 113.28200243 -102.78662109 114.26782227 C-105.3685916 116.67121145 -107.72146156 118.6495544 -111 120 C-111 120.66 -111 121.32 -111 122 C-113.046875 123.875 -113.046875 123.875 -115.75 126 C-117.07257813 127.051875 -117.07257813 127.051875 -118.421875 128.125 C-120.57798064 129.69307683 -122.57748621 130.91326484 -125 132 C-125 132.66 -125 133.32 -125 134 C-126.48738235 135.35382149 -128.04430551 136.63139886 -129.625 137.875 C-134.113189 141.4655512 -138.52274154 145.12094222 -142.875 148.875 C-148.03565724 153.31946994 -153.21384425 157.74121697 -158.43896484 162.10986328 C-162.45856595 165.48622887 -166.27414809 169.03763131 -170 172.734375 C-172 174 -172 174 -174.3359375 174.078125 C-178.20997341 172.51033334 -180.68149737 169.91096426 -183.625 167 C-184.87123787 165.80342215 -186.11995888 164.60942538 -187.37109375 163.41796875 C-187.98581543 162.83192871 -188.60053711 162.24588867 -189.23388672 161.64208984 C-192.46206314 158.6406087 -195.91711983 155.92948089 -199.35546875 153.17578125 C-202.15839248 150.869683 -204.83003275 148.45848469 -207.5 146 C-211.05670244 142.72581577 -214.67161811 139.59357567 -218.4375 136.5625 C-222.97425888 132.90340714 -227.2613607 129.05275284 -231.52148438 125.08178711 C-234.72380319 122.11551018 -238.01724336 119.33539205 -241.4375 116.625 C-246.57701026 112.5044014 -251.17622054 107.96881569 -255.76147461 103.25244141 C-258.5888415 100.24881436 -258.5888415 100.24881436 -262 98 C-262 97.34 -262 96.68 -262 96 C-241.87 96 -221.74 96 -201 96 C-206.71855745 86.46907092 -214.26664829 79.76130455 -223 73 C-223.71414063 72.443125 -224.42828125 71.88625 -225.1640625 71.3125 C-232.07536053 66.02577004 -238.88441138 61.24623545 -247 58 C-248.20910734 57.38674589 -249.41326583 56.76367237 -250.61328125 56.1328125 C-255.15395798 53.84554103 -259.81922205 52.1419044 -264.625 50.5 C-265.50816895 50.19739258 -266.39133789 49.89478516 -267.30126953 49.58300781 C-269.86446466 48.71259433 -272.43154919 47.85475702 -275 47 C-276.80210937 46.38898437 -276.80210937 46.38898437 -278.640625 45.765625 C-283.91790306 44.1085087 -288.96143353 42.95058812 -294.46875 42.4453125 C-309.61340564 41.02447851 -309.61340564 41.02447851 -313.9765625 37.80078125 C-315.92007228 35.29072711 -317.4559795 32.76799193 -319 30 C-320.62366987 28.19378195 -320.62366987 28.19378195 -322.3125 26.6875 C-325 24 -325 24 -326.375 21.625 C-328.47168581 18.238046 -331.15805588 15.76360005 -333.99609375 12.98828125 C-340.97136062 6.06740243 -340.97136062 6.06740243 -342 1 C-337.4793335 0.97531143 -332.9587061 0.95714551 -328.43798828 0.94506836 C-326.89956987 0.94003448 -325.36115625 0.93320692 -323.82275391 0.92456055 C-321.61359474 0.91245361 -319.40449874 0.90676231 -317.1953125 0.90234375 C-316.50567413 0.89718246 -315.81603577 0.89202118 -315.10549927 0.88670349 C-310.22774341 0.88612829 -310.22774341 0.88612829 -308 2 C-306.38940604 2.24261744 -304.77184492 2.43981056 -303.15234375 2.61328125 C-302.16218262 2.72486572 -301.17202148 2.8364502 -300.15185547 2.95141602 C-298.56074951 3.13015259 -298.56074951 3.13015259 -296.9375 3.3125 C-285.65197795 4.64670324 -274.55366102 6.42737632 -263.765625 10.1015625 C-260.90612068 11.14573267 -260.90612068 11.14573267 -257.375 11.3125 C-251.50256786 11.94886622 -246.34778012 14.63273358 -241 17 C-238.85637065 17.90109449 -236.71058819 18.79708706 -234.5625 19.6875 C-233.61503906 20.08324219 -232.66757812 20.47898437 -231.69140625 20.88671875 C-229.13510192 21.94411604 -226.5707287 22.97824032 -224 24 C-224 24.66 -224 25.32 -224 26 C-222.02 26.33 -220.04 26.66 -218 27 C-218 27.66 -218 28.32 -218 29 C-216.93265625 29.40798828 -216.93265625 29.40798828 -215.84375 29.82421875 C-208.64220489 32.80178067 -202.27053827 36.23534876 -197 42 C-196.01 42.33 -195.02 42.66 -194 43 C-193.443125 43.70125 -192.88625 44.4025 -192.3125 45.125 C-190.36558181 47.54549289 -188.60107086 49.27160378 -186.25 51.25 C-181.3998961 55.3903326 -175.88428988 60.23142024 -173 66 C-172.34 66 -171.68 66 -171 66 C-169.49688159 64.28353922 -169.49688159 64.28353922 -167.9375 62.0625 C-161.10980995 53.06684239 -152.84393743 45.95723078 -144 39 C-143.26394531 38.40832031 -142.52789063 37.81664062 -141.76953125 37.20703125 C-138.72764307 34.82412078 -135.90493265 32.82742438 -132.3125 31.375 C-128.93018813 30.15593162 -128.93018813 30.15593162 -126.3125 27.8125 C-124 26 -124 26 -120 26 C-120 25.34 -120 24.68 -120 24 C-112.20795653 19.75881826 -104.17666101 16.72840652 -95.75 14 C-95.08901306 13.78344757 -94.42802612 13.56689514 -93.74700928 13.34378052 C-79.83736104 8.83170549 -65.85393437 6.34449912 -51.37548828 4.41381836 C-49.05196485 4.24371913 -49.05196485 4.24371913 -48 3 C-45.32941149 2.85884839 -42.67567762 2.95752893 -40 3 C-40 2.34 -40 1.68 -40 1 C-26.65013933 0.14560892 -13.37590974 -0.11978427 0 0 Z " fill="#040404" transform="translate(754,565)"/>
<path d="M0 0 C3.50898903 1.40212742 4.62803458 2.6265518 6.125 6.0625 C8.52091954 11.17629077 11.2576927 16.01590303 14.125 20.875 C14.55699707 21.61242432 14.98899414 22.34984863 15.43408203 23.10961914 C17.11727283 25.95566475 18.73744502 28.67152212 20.8046875 31.2578125 C22 33 22 33 22 37 C22.66 37 23.32 37 24 37 C26.99005478 40.85559696 29.46778708 44.75393105 31.8203125 49.03125 C33.87072335 52.45312772 36.26093166 55.64157221 38.609375 58.86328125 C40 61 40 61 40 63 C40.66 63 41.32 63 42 63 C43.31274414 64.49707031 43.31274414 64.49707031 44.78515625 66.578125 C45.31560547 67.32707031 45.84605469 68.07601562 46.39257812 68.84765625 C46.94365234 69.64042969 47.49472656 70.43320313 48.0625 71.25 C48.61744141 72.02730469 49.17238281 72.80460937 49.74414062 73.60546875 C54.2337337 80.00354901 54.2337337 80.00354901 55 84 C55.66 84 56.32 84 57 84 C68.18837798 103.9545298 71.20154166 125.34183778 67 148 C66.34 148 65.68 148 65 148 C64.814375 149.546875 64.814375 149.546875 64.625 151.125 C64.06110186 154.62116846 63.21317941 157.68397627 62 161 C61.34 161 60.68 161 60 161 C59.9071875 161.71542969 59.814375 162.43085938 59.71875 163.16796875 C56.59642967 175.47058963 43.50762738 184.26779644 33.48046875 190.75 C31 192 31 192 27 192 C27 192.66 27 193.32 27 194 C24.69 194.33 22.38 194.66 20 195 C20.13277344 194.43152344 20.26554688 193.86304688 20.40234375 193.27734375 C20.57894531 192.50519531 20.75554687 191.73304688 20.9375 190.9375 C21.11152344 190.18339844 21.28554688 189.42929687 21.46484375 188.65234375 C25.08742764 170.6980776 25.03165051 150.61155646 17.9921875 133.55859375 C17 131 17 131 16.06640625 127.66796875 C14.92843028 123.75383163 13.49676193 120.07218022 11.9375 116.3125 C8.72656081 108.54310516 8.72656081 108.54310516 8 105 C7.34 105 6.68 105 6 105 C5.566875 103.865625 5.13375 102.73125 4.6875 101.5625 C4.130625 100.386875 3.57375 99.21125 3 98 C1.515 97.505 1.515 97.505 0 97 C-0.20496094 97.62648438 -0.40992188 98.25296875 -0.62109375 98.8984375 C-0.89050781 99.71570313 -1.15992188 100.53296875 -1.4375 101.375 C-1.70433594 102.18710938 -1.97117187 102.99921875 -2.24609375 103.8359375 C-3 106 -3 106 -4 108 C-4.66 108 -5.32 108 -6 108 C-6.12383057 108.69818848 -6.24766113 109.39637695 -6.37524414 110.11572266 C-7.04804371 113.22180084 -7.97678549 116.13831066 -8.99609375 119.1484375 C-9.38990234 120.31890625 -9.78371094 121.489375 -10.18945312 122.6953125 C-10.60130859 123.90960938 -11.01316406 125.12390625 -11.4375 126.375 C-16.23518738 140.56342145 -19.17765993 152.52341298 -19.1875 167.5 C-19.19974609 168.48097656 -19.21199219 169.46195313 -19.22460938 170.47265625 C-19.23540818 175.87925763 -18.84517081 180.79683604 -17.49194336 186.03881836 C-16.74938192 188.99911416 -16.38619058 191.97484043 -16 195 C-19.12290635 194.51421457 -21.99580359 194.0013988 -25 193 C-25 192.34 -25 191.68 -25 191 C-25.804375 190.95875 -26.60875 190.9175 -27.4375 190.875 C-34.50814435 189.13835051 -40.18460982 184.3359729 -45 179 C-45.70382812 178.24976563 -45.70382812 178.24976563 -46.421875 177.484375 C-58.98945746 163.62116549 -63.40192109 148.22576181 -63.3125 129.875 C-63.30758545 128.68519531 -63.3026709 127.49539062 -63.29760742 126.26953125 C-63.07464827 109.45726752 -60.1876942 93.28743739 -49 80 C-48.34 80 -47.68 80 -47 80 C-46.88205078 79.15501953 -46.88205078 79.15501953 -46.76171875 78.29296875 C-45.74498279 75.23233281 -44.04212671 73.63175995 -41.8125 71.3125 C-38.16511533 67.39257626 -35.10973308 63.45456996 -32.2890625 58.91015625 C-31.01469255 57.02177168 -29.62998559 55.58099695 -28 54 C-25.46711001 50.20066502 -23.76832527 46.19977252 -22 42 C-21.01462479 39.9927542 -20.01936943 37.99019747 -19 36 C-18.34 36 -17.68 36 -17 36 C-16.72599365 35.12601563 -16.4519873 34.25203125 -16.16967773 33.3515625 C-15.07026138 30.20132504 -13.78902261 27.34944435 -12.28515625 24.375 C-11.76373047 23.33859375 -11.24230469 22.3021875 -10.70507812 21.234375 C-10.16302734 20.16703125 -9.62097656 19.0996875 -9.0625 18 C-8.25522461 16.39898437 -8.25522461 16.39898437 -7.43164062 14.765625 C-6.42640476 12.77250629 -5.4195198 10.78021777 -4.41040039 8.7890625 C-2.93116519 5.86387937 -1.46398677 2.93283997 0 0 Z " fill="#040403" transform="translate(580,115)"/>
<path d="M0 0 C11.72674838 -0.09048417 23.45326367 -0.16382176 35.18028259 -0.20724869 C40.62601729 -0.22809479 46.0715001 -0.2563583 51.51708984 -0.30175781 C56.77555812 -0.34532136 62.03378458 -0.36915949 67.29241943 -0.37950897 C69.29542851 -0.38688146 71.29842484 -0.40127822 73.30133057 -0.42292023 C76.11393501 -0.45209378 78.92554907 -0.45595017 81.73828125 -0.45410156 C82.97151375 -0.47567322 82.97151375 -0.47567322 84.22966003 -0.49768066 C94.61858697 -0.42413074 102.71126903 5.78977522 110 12.75 C112 15 112 15 112 17 C112.66 17 113.32 17 114 17 C118.96330168 27.39929876 120.48112511 37.67198226 120.3125 49.125 C120.31572266 50.22714844 120.31894531 51.32929688 120.32226562 52.46484375 C120.26713693 60.91456925 119.62001052 69.24283459 116 77 C115.34 77 114.68 77 114 77 C113.76410156 77.85980469 113.52820313 78.71960938 113.28515625 79.60546875 C111.86542253 83.35546451 109.90706978 86.20939527 107.4375 89.3125 C106.99422363 89.87646484 106.55094727 90.44042969 106.09423828 91.02148438 C100.14463527 98.46854888 93.75146115 105.82364324 85 110 C84.34 110 83.68 110 83 110 C83 110.66 83 111.32 83 112 C81.56445975 112.50559908 80.1264798 113.0042749 78.6875 113.5 C77.88699219 113.7784375 77.08648437 114.056875 76.26171875 114.34375 C74 115 74 115 71 115 C71 115.66 71 116.32 71 117 C68.60740277 117.66034455 66.21198701 118.30305193 63.8125 118.9375 C62.83120117 119.21110352 62.83120117 119.21110352 61.83007812 119.49023438 C50.53361684 122.43480959 38.77783865 122.1416773 27.1875 122.0625 C25.91068359 122.05798828 24.63386719 122.05347656 23.31835938 122.04882812 C20.21218789 122.03719452 17.10612092 122.02085075 14 122 C11.25168807 112.69628829 8.52273022 103.38927546 5.89453125 94.05078125 C5.2892979 91.9866448 4.6174961 89.94106814 3.88671875 87.91796875 C3.02002081 85.06588345 2.92948618 82.94884427 3 80 C3.66239685 80.00079559 4.3247937 80.00159119 5.00726318 80.00241089 C11.95176008 80.00486383 18.89515079 79.96535355 25.83935547 79.90234375 C28.42491508 79.88426517 31.01057067 79.87660032 33.59619141 79.87988281 C37.33049613 79.88276311 41.06284321 79.84720274 44.796875 79.8046875 C45.93799744 79.81378143 47.07911987 79.82287537 48.25482178 79.83224487 C59.05700902 79.64012909 67.91117744 75.7293659 75.59765625 68.1015625 C82.05969696 58.4175015 80 51.14125331 80 39 C53.6 39 27.2 39 0 39 C0 26.13 0 13.26 0 0 Z " fill="#050505" transform="translate(328,325)"/>
<path d="M0 0 C2.02164948 0.01121324 4.04331545 0.01974334 6.06498718 0.02572632 C11.34412953 0.04845724 16.62225566 0.10724221 21.90100098 0.1739502 C28.25700637 0.24660533 34.61335467 0.27375378 40.9696579 0.30867004 C50.58854808 0.36653303 60.20521577 0.48161411 69.82421875 0.5859375 C69.82421875 13.4559375 69.82421875 26.3259375 69.82421875 39.5859375 C30.71921875 40.0809375 30.71921875 40.0809375 -9.17578125 40.5859375 C-11.39746913 49.472689 -10.76661874 57.58106875 -6.17578125 65.5859375 C-0.91760518 73.0280964 5.74655564 78.6928136 14.82421875 80.5859375 C16.56446545 80.69808553 18.30815288 80.76163541 20.05175781 80.79125977 C21.09253479 80.81120499 22.13331177 80.83115021 23.20562744 80.85169983 C24.32241882 80.86841232 25.43921021 80.88512482 26.58984375 80.90234375 C28.31264557 80.9335154 28.31264557 80.9335154 30.07025146 80.96531677 C33.73817986 81.03068743 37.40617968 81.08963944 41.07421875 81.1484375 C43.56120529 81.19163457 46.04818462 81.23524925 48.53515625 81.27929688 C54.63143497 81.38635608 60.7277847 81.48814575 66.82421875 81.5859375 C66.50459179 83.51332471 66.18451947 85.44063807 65.86425781 87.36791992 C65.59696869 88.97784065 65.59696869 88.97784065 65.32427979 90.62028503 C63.92085662 98.94339979 61.92577129 106.70573521 58.71484375 114.50390625 C58.2974292 115.5317926 58.2974292 115.5317926 57.87158203 116.58044434 C57.1928044 118.25044123 56.50903294 119.91840693 55.82421875 121.5859375 C-3.76932506 123.09222944 -3.76932506 123.09222944 -26.92578125 102.8984375 C-30.25964491 99.64422246 -33.42343928 96.34747153 -36.17578125 92.5859375 C-36.17578125 91.9259375 -36.17578125 91.2659375 -36.17578125 90.5859375 C-36.83578125 90.5859375 -37.49578125 90.5859375 -38.17578125 90.5859375 C-47.33220257 78.52562256 -49.38572163 65.36870298 -49.47094727 50.65771484 C-49.48238431 49.29074687 -49.50270281 47.92382057 -49.5324707 46.55712891 C-49.76193819 35.98111355 -49.53675809 23.85650943 -42.88671875 15.03125 C-42.11585938 14.26554687 -41.345 13.49984375 -40.55078125 12.7109375 C-39.77476562 11.90914063 -38.99875 11.10734375 -38.19921875 10.28125 C-36.17578125 8.5859375 -36.17578125 8.5859375 -34.17578125 8.5859375 C-34.17578125 7.9259375 -34.17578125 7.2659375 -34.17578125 6.5859375 C-22.9058651 -0.34955935 -12.83854778 -0.21093567 0 0 Z " fill="#030303" transform="translate(765.17578125,324.4140625)"/>
<path d="M0 0 C35.97 0 71.94 0 109 0 C109 26.43662791 109 26.43662791 106.125 34.5 C105.85558594 35.33917969 105.58617187 36.17835938 105.30859375 37.04296875 C104.79435023 38.64088642 104.26830607 40.23508115 103.72753906 41.82421875 C102.71369433 44.8562269 101.85299153 47.91929272 101 51 C100.34 51 99.68 51 99 51 C98.90203125 51.556875 98.8040625 52.11375 98.703125 52.6875 C98.55359375 53.450625 98.4040625 54.21375 98.25 55 C98.11078125 55.7425 97.9715625 56.485 97.828125 57.25 C96.6954586 61.01130729 94.75672227 64.48655546 93 68 C67.59 68 42.18 68 16 68 C5 43.25 5 43.25 5 36 C4.34 36 3.68 36 3 36 C2.48712497 32.25164737 1.99216862 28.50112299 1.5 24.75 C1.28537109 23.18378906 1.28537109 23.18378906 1.06640625 21.5859375 C0.93105469 20.54179687 0.79570313 19.49765625 0.65625 18.421875 C0.53056641 17.47924805 0.40488281 16.53662109 0.27539062 15.56542969 C-0.12423513 10.39155155 0 5.18928855 0 0 Z " fill="#FCFCFC" transform="translate(527,365)"/>
<path d="M0 0 C0.74735806 0.00223072 1.49471612 0.00446144 2.26472139 0.00675976 C3.05299586 0.00519977 3.84127032 0.00363978 4.65343189 0.00203252 C7.31518077 -0.00198066 9.97687338 0.00121338 12.63862276 0.00434887 C14.53860174 0.00299497 16.43858046 0.00121511 18.33855867 -0.00096118 C23.51402789 -0.00553686 28.68947726 -0.00374541 33.86494684 -0.0005821 C39.26838788 0.00194081 44.67182717 -0.00039584 50.07526827 -0.00196826 C59.15123981 -0.00379016 68.22720323 -0.00138312 77.30317354 0.00337231 C87.81243796 0.00881497 98.32168298 0.00705233 108.83094692 0.00154591 C117.83643002 -0.00298465 126.84190726 -0.00363606 135.84739113 -0.00101542 C141.23366123 0.00054767 146.6199222 0.00074024 152.00619173 -0.00255191 C157.06876269 -0.0054298 162.13130852 -0.00345647 167.19387674 0.00234234 C169.05757337 0.00367039 170.92127209 0.00327508 172.7849679 0.00107968 C175.31788028 -0.00163009 177.85071079 0.00174715 180.38361788 0.00675976 C181.13097594 0.00452904 181.878334 0.00229832 182.64833927 0 C187.71001978 0.01959355 187.71001978 0.01959355 188.82416964 1.13374341 C188.9282381 2.81913478 188.96270346 4.50887623 188.96943331 6.19746411 C188.97581316 7.27981839 188.98219301 8.36217267 188.98876619 9.47732556 C188.99043543 11.25051411 188.99043543 11.25051411 188.99213839 13.05952466 C188.99546679 14.27262814 188.99879519 15.48573163 189.00222445 16.73559582 C189.00730279 19.31565482 189.00963249 21.89572043 189.00947237 24.47578442 C189.01163916 28.39118143 189.02973044 32.30628769 189.04877901 36.22163403 C189.05171683 38.73009661 189.05369902 41.23856053 189.05463839 43.74702466 C189.0618239 44.90688382 189.06900942 46.06674298 189.07641268 47.26174939 C189.05581797 54.73904237 188.28571974 61.80085552 186.82416964 69.13374341 C186.49416964 69.13374341 186.16416964 69.13374341 185.82416964 69.13374341 C185.79650774 67.63385379 185.77748354 66.13380472 185.76166964 64.63374341 C185.75006807 63.79843091 185.73846651 62.96311841 185.72651339 62.10249341 C185.84732014 58.42996813 186.36840255 54.77988007 186.82416964 51.13374341 C186.82416964 35.29374341 186.82416964 19.45374341 186.82416964 3.13374341 C123.79416964 2.80374341 60.76416964 2.47374341 -4.17583036 2.13374341 C-4.21496035 36.14657256 -4.21496035 36.14657256 -3.17583036 70.13374341 C-3.50583036 70.13374341 -3.83583036 70.13374341 -4.17583036 70.13374341 C-6.71672924 57.11163669 -7.46637758 44.36419565 -7.42583036 31.13374341 C-7.424783 30.38934002 -7.42373564 29.64493664 -7.42265654 28.87797558 C-7.33692111 0.02840092 -7.33692111 0.02840092 0 0 Z " fill="#939393" transform="translate(490.1758303642273,323.8662565946579)"/>
<path d="M0 0 C9.9 0 19.8 0 30 0 C28.40444364 3.98889091 27.15216341 6.40549001 24.6875 9.75 C21.40601578 14.32210982 18.61073442 19.01915184 16 24 C11.69761711 22.56587237 10.56334703 19.31827868 8.4375 15.5625 C7.64711808 14.18731208 6.85425056 12.81354897 6.05859375 11.44140625 C5.71111084 10.82982666 5.36362793 10.21824707 5.00561523 9.58813477 C3.96934029 7.82325525 3.96934029 7.82325525 2 6 C2 5.01 2 4.02 2 3 C1.34 3 0.68 3 0 3 C0 2.01 0 1.02 0 0 Z " fill="#F6F6F7" transform="translate(567,472)"/>
<path d="M0 0 C36.96 0 73.92 0 112 0 C112 4.95 112 9.9 112 15 C111.67 15 111.34 15 111 15 C111 10.71 111 6.42 111 2 C75.03 2 39.06 2 2 2 C2.66 10.58 3.32 19.16 4 28 C1.94145527 24.9121829 1.48220396 23.22003297 0.875 19.625 C0.70742188 18.68914062 0.53984375 17.75328125 0.3671875 16.7890625 C-0.17273999 11.21747036 0 5.59769244 0 0 Z " fill="#616161" transform="translate(525,363)"/>
<path d="M0 0 C9.9 0 19.8 0 30 0 C29.34 1.65 28.68 3.3 28 5 C27.67 4.01 27.34 3.02 27 2 C19.08 2 11.16 2 3 2 C3.33 3.65 3.66 5.3 4 7 C3.34 6.67 2.68 6.34 2 6 C2 5.01 2 4.02 2 3 C1.34 3 0.68 3 0 3 C0 2.01 0 1.02 0 0 Z " fill="#C7C7C7" transform="translate(567,472)"/>
<path d="M0 0 C3.79164991 -0.02943124 7.58326979 -0.0469419 11.375 -0.0625 C12.43589844 -0.07087891 13.49679687 -0.07925781 14.58984375 -0.08789062 C21.12672204 -0.1079424 27.51174824 0.1941922 34 1 C34 1.33 34 1.66 34 2 C18.655 2.495 18.655 2.495 3 3 C2.67 3.66 2.34 4.32 2 5 C1.34 4.34 0.68 3.68 0 3 C0 2.01 0 1.02 0 0 Z " fill="#8D8D8D" transform="translate(410,564)"/>
<path d="M0 0 C1.0458008 2.71908209 1.0650899 3.82410895 0.03564453 6.60595703 C-1.23088306 10.75665635 -1.25243406 14.37249908 -1.1953125 18.6796875 C-1.1924826 19.49245148 -1.18965271 20.30521545 -1.18673706 21.14260864 C-1.17560619 23.72022675 -1.15051515 26.29748819 -1.125 28.875 C-1.11496101 30.63020329 -1.10583677 32.38541206 -1.09765625 34.140625 C-1.07569015 38.42721926 -1.04120978 42.7135493 -1 47 C-1.66 46.67 -2.32 46.34 -3 46 C-3.04966586 40.85881945 -3.08584495 35.71778049 -3.10986328 30.57641602 C-3.11988268 28.82964645 -3.13350195 27.0828935 -3.15087891 25.33618164 C-3.17530669 22.81652715 -3.18652389 20.29709561 -3.1953125 17.77734375 C-3.20563507 17.00414291 -3.21595764 16.23094208 -3.22659302 15.43431091 C-3.22772917 9.86687729 -2.5255265 5.051053 0 0 Z " fill="#969596" transform="translate(718,347)"/>
<path d="M0 0 C0.33 0 0.66 0 1 0 C1.01981934 0.64960693 1.03963867 1.29921387 1.06005859 1.96850586 C1.15627933 4.95852522 1.26555899 7.94793648 1.375 10.9375 C1.4059375 11.95908203 1.436875 12.98066406 1.46875 14.03320312 C1.68007818 19.54534641 2.16247695 24.70615934 3.5234375 30.05859375 C4.2487153 33.01320904 4.61500649 35.98421751 5 39 C1.26512223 38.5020163 -0.81237635 38.12508244 -4 36 C-1.69 36.33 0.62 36.66 3 37 C2.690625 36.154375 2.38125 35.30875 2.0625 34.4375 C-0.28387881 26.84627443 -0.12332518 19.4463793 -0.0625 11.5625 C-0.05798828 10.44939453 -0.05347656 9.33628906 -0.04882812 8.18945312 C-0.03711193 5.45957899 -0.02070699 2.72981826 0 0 Z " fill="#3D3D3C" transform="translate(559,271)"/>
<path d="M0 0 C0 3 0 3 -1.56054688 4.90112305 C-2.62885742 5.94586792 -2.62885742 5.94586792 -3.71875 7.01171875 C-4.48574219 7.76904297 -5.25273438 8.52636719 -6.04296875 9.30664062 C-6.85378906 10.09232422 -7.66460938 10.87800781 -8.5 11.6875 C-9.31082031 12.48478516 -10.12164063 13.28207031 -10.95703125 14.10351562 C-12.96482203 16.0758748 -14.9792687 18.04091492 -17 20 C-17.66 19.67 -18.32 19.34 -19 19 C-13.0763504 12.14630879 -6.85369121 5.9236496 0 0 Z " fill="#323232" transform="translate(604,609)"/>
<path d="M0 0 C0.33 0.99 0.66 1.98 1 3 C-0.90957714 5.13176064 -2.82708763 7.2553245 -4.75 9.375 C-5.55824219 10.27992188 -5.55824219 10.27992188 -6.3828125 11.203125 C-6.91132812 11.78320312 -7.43984375 12.36328125 -7.984375 12.9609375 C-8.70705566 13.76217041 -8.70705566 13.76217041 -9.44433594 14.57958984 C-11.16979726 16.1550346 -12.87547258 17.04997548 -15 18 C-10.43492321 11.59099023 -5.33082532 5.7809839 0 0 Z " fill="#CECFCF" transform="translate(742,579)"/>
<path d="M0 0 C6.93 0 13.86 0 21 0 C20.01 1.65 19.02 3.3 18 5 C17.67 3.68 17.34 2.36 17 1 C11.39 1 5.78 1 0 1 C0 0.67 0 0.34 0 0 Z " fill="#3B3B3A" transform="translate(733,565)"/>
<path d="M0 0 C0.33 0 0.66 0 1 0 C1.1799928 5.21979128 0.97094808 9.07262981 -1 14 C0.65 14 2.3 14 4 14 C1.35261084 15.4606285 0.10551666 16 -3 16 C-2.86722656 15.43152344 -2.73445312 14.86304688 -2.59765625 14.27734375 C-1.5115242 9.52848903 -0.61687618 4.83219676 0 0 Z " fill="#504E4E" transform="translate(603,294)"/>
<path d="M0 0 C0.33 0 0.66 0 1 0 C1.22084624 6.09781001 1.01167675 11.21642935 -1 17 C-1.33 17 -1.66 17 -2 17 C-2.21824777 10.9981863 -1.5056904 5.80766296 0 0 Z " fill="#AEAEAE" transform="translate(635,378)"/>
<path d="M0 0 C1.17539996 0.92652701 2.34010577 1.86663387 3.5 2.8125 C4.1496875 3.33457031 4.799375 3.85664062 5.46875 4.39453125 C7 6 7 6 7 9 C6.01 8.34 5.02 7.68 4 7 C3.01 7 2.02 7 1 7 C0.67 4.69 0.34 2.38 0 0 Z " fill="#BBBBBA" transform="translate(421,579)"/>
<path d="M0 0 C0.33 0 0.66 0 1 0 C1.23921569 13.63529412 1.23921569 13.63529412 -1.54296875 16.69921875 C-2.02378906 17.12847656 -2.50460937 17.55773437 -3 18 C-2.41509121 11.85845775 -1.45933748 5.99320151 0 0 Z " fill="#A5A4A2" transform="translate(831,409)"/>
<path d="M0 0 C0.33 1.32 0.66 2.64 1 4 C3.64 4.33 6.28 4.66 9 5 C9 5.33 9 5.66 9 6 C5.04 6 1.08 6 -3 6 C-2 2 -2 2 0 0 Z " fill="#D6D5D3" transform="translate(614,655)"/>
<path d="M0 0 C1.41554787 2.61331914 2.58131312 5.30718129 3.6875 8.0625 C3.95949219 8.73410156 4.23148437 9.40570313 4.51171875 10.09765625 C5 12 5 12 4 15 C4 14.34 4 13.68 4 13 C3.01 13 2.02 13 1 13 C1.020625 11.865625 1.04125 10.73125 1.0625 9.5625 C1.41577477 6.18424326 1.41577477 6.18424326 0 5 C-0.04063832 3.33382885 -0.042721 1.66611905 0 0 Z " fill="#B6B5B5" transform="translate(493,416)"/>
<path d="M0 0 C2.76223278 2.76223278 2.57856291 5.20706617 3 9 C-0.73487777 8.5020163 -2.81237635 8.12508244 -6 6 C-3.69 6.33 -1.38 6.66 1 7 C0.67 4.69 0.34 2.38 0 0 Z " fill="#595A5A" transform="translate(561,301)"/>
<path d="M0 0 C0.66 0.33 1.32 0.66 2 1 C-0.97 4.96 -0.97 4.96 -4 9 C-4.33 8.34 -4.66 7.68 -5 7 C-5.66 6.67 -6.32 6.34 -7 6 C-4.69 4.02 -2.38 2.04 0 0 Z " fill="#C9C9C9" transform="translate(636,691)"/>
<path d="M0 0 C1.48717691 3.86665996 0.34016247 6.20287302 -1 10 C-1.37531446 12.32694964 -1.71917202 14.65976685 -2 17 C-2.33 17 -2.66 17 -3 17 C-3.21534815 10.86257765 -2.81072717 5.62145434 0 0 Z " fill="#A6A6A7" transform="translate(718,347)"/>
<path d="M0 0 C-1.44077046 3.36179774 -3.24750021 5.59156268 -6 8 C-6.66 8 -7.32 8 -8 8 C-6.48291727 4.46014029 -4.24676932 0 0 0 Z " fill="#313032" transform="translate(731,333)"/>
<path d="M0 0 C2.56616632 3.84924948 2.55097676 6.4349304 3 11 C1.68 10.34 0.36 9.68 -1 9 C-0.67 6.03 -0.34 3.06 0 0 Z " fill="#C2C3C2" transform="translate(599,251)"/>
<path d="M0 0 C0.33 0.99 0.66 1.98 1 3 C-1.31 4.98 -3.62 6.96 -6 9 C-6.66 8.67 -7.32 8.34 -8 8 C-5.36 5.36 -2.72 2.72 0 0 Z " fill="#C6C7C6" transform="translate(429,421)"/>
<path d="M0 0 C1.37562854 1.28965176 2.70766393 2.62689293 4 4 C4 4.66 4 5.32 4 6 C3.46375 5.71125 2.9275 5.4225 2.375 5.125 C-0.35280484 3.83288192 -3.12612718 2.91441408 -6 2 C-2.25 0.875 -2.25 0.875 0 2 C0 1.34 0 0.68 0 0 Z " fill="#C9C9C8" transform="translate(426,325)"/>
<path d="M0 0 C2.97 1.98 2.97 1.98 6 4 C4.02 4.99 4.02 4.99 2 6 C1.01 5.34 0.02 4.68 -1 4 C-0.67 2.68 -0.34 1.36 0 0 Z " fill="#EFEFEE" transform="translate(522,690)"/>
<path d="M0 0 C0 3 0 3 -2 5.1875 C-2.66 5.785625 -3.32 6.38375 -4 7 C-4.66 6.34 -5.32 5.68 -6 5 C-4.02 3.35 -2.04 1.7 0 0 Z " fill="#CDCACC" transform="translate(597,725)"/>
<path d="M0 0 C0.33 0.99 0.66 1.98 1 3 C-0.65 4.65 -2.3 6.3 -4 8 C-4.66 7.67 -5.32 7.34 -6 7 C-4.02 4.69 -2.04 2.38 0 0 Z " fill="#C3C4C4" transform="translate(742,579)"/>
<path d="M0 0 C1.25541557 3.76624671 0.37061958 5.37188934 -1 9 C-1.99 9 -2.98 9 -4 9 C-2.80100302 5.9168649 -1.52299523 2.93720508 0 0 Z " fill="#A5A3A3" transform="translate(789,513)"/>
<path d="M0 0 C1.32 0.66 2.64 1.32 4 2 C2.68 3.65 1.36 5.3 0 7 C-1.125 2.25 -1.125 2.25 0 0 Z " fill="#EBEBEC" transform="translate(588,479)"/>
<path d="M0 0 C1.04293785 3.38954801 1.30754089 6.46327974 1 10 C0.01 10.66 -0.98 11.32 -2 12 C-1.85831863 10.56208484 -1.71148957 9.1246763 -1.5625 7.6875 C-1.48128906 6.88699219 -1.40007813 6.08648437 -1.31640625 5.26171875 C-1 3 -1 3 0 0 Z " fill="#B4B3B3" transform="translate(673,401)"/>
</svg>
