<?xml version="1.0" encoding="UTF-8"?>
<svg version="1.1" viewBox="0 0 1184 864" width="1184" height="864" xmlns="http://www.w3.org/2000/svg">
<path transform="translate(0)" d="m0 0h1184v864h-1184z" fill="#FEFEFE"/>
<path transform="translate(486,325)" d="m0 0h192l1 5v45l-3 19-6 23-7 19-13 27-14 23-12 17-6 8 17-8 24-8 24-6 18-3h105l-6 12-13 22-5 7-76 1-26 4-25 6-22 8-11 5-15 8-16 12-4 2v2l-4 4-4-1v-2h-2l-5-5-11-9-15-9-17-8-24-8-21-5-27-4-75-1-4-4-21-36v-1h104l19 3 32 8 24 9 10 5-11-14-12-17-11-19-9-17-9-23-6-21-3-17-1-11v-38l1-8z" fill="#252525"/>
<path transform="translate(410,565)" d="m0 0h27l24 3 27 6 23 7 18 8 17 9 13 10 10 9 7 7v2h2l2 5h3l8-10 7-7 11-9 10-7 16-9 19-8 15-5 29-7 17-3 12-1h27l-3 5-13 15-10 11-6 8-17 3-25 6-20 8-17 9-13 10-8 7-9 11-2 2 58 1-2 4-14 13-8 7-11 10-11 9-10 9-11 9-14 12-6 5-5-1-7-7-11-9-11-10-11-9-10-9-8-7-20-18-6-5v-3h61l-7-8-3-3v-2h-2v-2l-4-2-10-9-13-8-19-9-17-6-22-5-13-2-5-5-10-11-9-11-10-12z" fill="#252525"/>
<path transform="translate(580,115)" d="m0 0 3 1 11 20 15 24 11 16 12 16 7 11 6 15 3 12v27l-4 14-7 14-6 8h-2v2l-9 7-14 7-6 1 3-16v-24l-5-21-5-15-8-17-4-5-9 19-8 24-3 16v24l3 15-9-2-11-6-10-8-8-11-6-14-3-11-1-18 2-16 4-13 6-12 18-22 11-18 15-28z" fill="#252525"/>
<path transform="translate(745,325)" d="m0 0h91v38l-1 1h-79l-1 10 2 12 4 7 1 3 4 2 9 5 4 1 53 1 1 3-7 27-4 12h-22l-22-2-16-4-17-8-12-11-8-10-7-14-2-7-1-9v-19l3-15 6-10 8-7 10-5z" fill="#252525"/>
<path transform="translate(328,325)" d="m0 0h89l10 4 11 8 7 11 3 11v29l-3 12-8 13-6 8h-2l-2 4-10 8-16 8-15 4-6 1-17 1h-20l-3-5-7-24-2-12 1-1 52-1 9-3 9-6 4-6 2-6v-14l-1-4-79-1z" fill="#252525"/>
<path transform="translate(527,364)" d="m0 0h108l2 1-1 17-4 20-7 20-5 10-1 1h-75l-5-8-6-17-4-14-2-16z" fill="#FEFEFE"/>
<path transform="translate(567,472)" d="m0 0h29l-1 5-12 18h-3l-12-20z" fill="#FEFEFE"/>
</svg>
